# Blender 3.6.2
# www.blender.org
o Hammer
v -0.007076 0.015910 -0.064558
v 0.007075 0.015910 -0.064558
v -0.007076 0.006595 -0.063171
v 0.007075 0.006595 -0.063171
v -0.007076 0.000988 -0.055603
v 0.007075 0.000988 -0.055603
v -0.007076 0.024865 -0.049635
v 0.007075 0.024865 -0.049635
v -0.007076 0.023478 -0.058951
v 0.007075 0.023478 -0.058951
v 0.007075 -0.015836 -0.004650
v -0.007076 -0.015836 -0.004650
v -0.007076 -0.014002 0.007668
v 0.007075 -0.014002 0.007668
v -0.007076 -0.003996 0.015081
v 0.007075 -0.003996 0.015081
v -0.007076 0.008322 0.013248
v 0.007075 0.008322 0.013248
v -0.007076 0.015736 0.003241
v 0.007075 0.015736 0.003241
vn -0.0000 -0.1472 -0.9891
vn -0.0000 -0.8035 -0.5953
vn -0.0000 -0.8878 -0.4602
vn -1.0000 -0.0000 -0.0000
vn -0.0000 -0.9963 -0.0855
vn -0.0000 0.9999 0.0116
vn -0.0000 0.9891 -0.1472
vn -0.0000 0.5953 -0.8035
vn -0.0000 -0.9891 0.1472
vn -0.0000 -0.5953 0.8035
vn -0.0000 0.1472 0.9891
vn -0.0000 0.8035 0.5953
vn -0.0000 0.9194 0.3934
vn 1.0000 -0.0000 -0.0000
vt 0.810207 0.862139
vt 0.802162 0.867494
vt 0.802162 0.862139
vt 0.810207 0.867494
vt 0.802162 0.872849
vt 0.625966 0.933041
vt 0.624330 0.888176
vt 0.634197 0.888907
vt 0.810207 0.872849
vt 0.802162 0.903355
vt 0.802162 0.851430
vt 0.810207 0.856785
vt 0.802162 0.856785
vt 0.810207 0.903355
vt 0.802162 0.910436
vt 0.810207 0.910436
vt 0.802162 0.917516
vt 0.810207 0.806763
vt 0.802162 0.813843
vt 0.802162 0.806763
vt 0.810207 0.820923
vt 0.802162 0.820923
vt 0.741369 0.892770
vt 0.752914 0.929093
vt 0.743004 0.937635
vt 0.810207 0.851430
vt 0.635875 0.893992
vt 0.635875 0.924499
vt 0.632690 0.930822
vt 0.619643 0.929856
vt 0.617424 0.923132
vt 0.621921 0.892958
vt 0.629415 0.886498
vt 0.810207 0.917516
vt 0.810207 0.813843
vt 0.736681 0.934450
vt 0.734463 0.927726
vt 0.738959 0.897553
vt 0.746454 0.891093
vt 0.751236 0.893502
vt 0.752914 0.898587
vt 0.749728 0.935417
s 1
f 2/1/1 3/2/1 1/3/1
f 4/4/2 5/5/3 3/2/2
f 15/6/4 9/7/4 3/8/4
f 6/9/3 12/10/5 5/5/3
f 7/11/6 10/12/7 9/13/7
f 9/13/8 2/1/8 1/3/8
f 11/14/5 13/15/9 12/10/5
f 14/16/10 15/17/10 13/15/10
f 16/18/11 17/19/11 15/20/11
f 17/19/12 20/21/13 19/22/13
f 4/23/14 20/24/14 16/25/14
f 8/26/6 19/22/13 20/21/13
f 2/1/1 4/4/1 3/2/1
f 4/4/2 6/9/3 5/5/3
f 3/8/4 5/27/4 12/28/4
f 12/28/4 13/29/4 15/6/4
f 15/6/4 17/30/4 19/31/4
f 19/31/4 7/32/4 9/7/4
f 9/7/4 1/33/4 3/8/4
f 3/8/4 12/28/4 15/6/4
f 15/6/4 19/31/4 9/7/4
f 6/9/3 11/14/5 12/10/5
f 7/11/6 8/26/6 10/12/7
f 9/13/8 10/12/8 2/1/8
f 11/14/5 14/16/9 13/15/9
f 14/16/10 16/34/10 15/17/10
f 16/18/11 18/35/11 17/19/11
f 17/19/12 18/35/12 20/21/13
f 16/25/14 14/36/14 11/37/14
f 11/37/14 6/38/14 4/23/14
f 4/23/14 2/39/14 10/40/14
f 10/40/14 8/41/14 20/24/14
f 20/24/14 18/42/14 16/25/14
f 16/25/14 11/37/14 4/23/14
f 4/23/14 10/40/14 20/24/14
f 8/26/6 7/11/6 19/22/13
