# Blender 3.6.2
# www.blender.org
o Rock_2
v -0.932142 1.052147 0.593881
v 0.186287 1.311887 0.690795
v -0.524725 1.266900 -0.523955
v 0.756791 1.384362 0.339625
v 0.473044 1.078035 -1.097846
v 0.911148 1.292050 -0.333399
v 0.249178 1.041864 0.769769
v 0.841914 0.984409 0.364293
v -0.153244 0.995492 0.758906
v -0.707209 0.645558 0.716065
v -0.234086 0.699423 0.759141
v -0.000002 0.946525 1.131841
v -0.006290 0.645708 1.210113
v 0.363127 0.904729 0.930564
v 0.422945 0.651099 0.971174
v 0.955712 0.782387 0.470370
v 0.997271 0.970610 -0.257773
v 1.146751 0.801938 -0.178560
v 0.779623 0.963067 -0.707160
v 0.936288 0.771321 -0.657301
v 0.781477 -0.032907 -0.783135
v 0.930050 -0.015992 -0.697305
v 0.476122 -0.070515 -1.202226
v -0.705379 0.493254 1.297781
v 0.303267 0.601997 1.373662
v 0.495299 0.634569 1.147118
v -0.479320 0.466871 1.454820
v 0.471820 0.525016 0.929455
v 0.520226 0.436487 1.150381
v 1.164638 0.045235 -0.203547
v 1.009556 0.465595 0.357272
v 1.037433 0.081074 0.388755
v 1.232978 0.463621 0.535434
v 1.277513 0.042210 0.604155
v 0.833762 0.211141 1.115119
v 0.933634 0.232122 1.050958
v 0.317483 0.321397 1.399451
v 0.459198 -0.292631 1.203086
v 0.730380 -0.262233 1.167317
v 0.930018 -0.221372 1.064122
v 0.316925 -0.177403 1.424281
v -0.739642 -0.301592 0.672506
v -0.678617 -0.108271 1.177568
v -1.123565 0.979613 0.390412
v -0.815494 1.156319 -0.544074
v -0.735775 1.051863 -0.747212
v -0.377479 1.200487 -1.021346
v 0.305494 0.001984 -1.455410
v 0.199213 0.864438 -1.525231
v 0.395709 -0.346482 -1.217971
v 0.195793 -0.335149 -1.438904
v 0.097977 0.074604 -1.505406
v -0.357186 0.190468 -1.146650
v -0.735875 -0.003444 -0.814350
v -0.308599 -0.338950 -1.141310
v -0.571829 -0.302377 -0.900841
v 1.013004 -0.079116 -0.830552
v 1.297606 0.007456 -0.176860
v 1.388637 0.046460 0.190414
v 1.242004 0.028854 0.474718
v 1.255436 -0.290284 0.632895
v 1.244726 -0.294682 0.554198
v 1.110346 -0.296156 0.903352
v 1.499803 -0.283495 0.206861
v 1.451689 -0.268741 -0.204180
v 1.084283 -0.257947 -0.858892
v 0.922732 -0.290575 -1.054924
v -1.072388 -0.280697 0.615836
v -1.132841 0.822898 0.610199
v -1.174076 -0.132034 0.508970
v -0.836097 -0.354735 -0.242044
v -0.866555 -0.394739 0.188170
v -0.523959 -0.058406 1.536963
v 0.154224 -0.351911 1.455165
v -0.568514 -0.314478 1.364878
v -0.349057 -0.397964 1.372475
v 0.264392 -0.394588 1.219032
v -0.601605 -0.383589 0.675248
v -0.230930 -0.399486 -0.614232
v 0.329570 -0.387295 -0.222377
v 0.292966 -0.383297 0.259194
v 0.712147 -0.348778 0.867695
vn -0.2333 0.9672 0.1008
vn 0.0204 0.9597 -0.2804
vn 0.5675 0.1705 0.8055
vn -0.1660 0.3745 0.9122
vn -0.0936 0.0264 0.9953
vn -0.8858 0.2422 0.3958
vn 0.3464 0.8207 0.4545
vn 0.4690 0.2464 0.8481
vn 0.5608 0.6099 0.5600
vn 0.9399 0.2931 0.1754
vn 0.7827 0.5709 0.2476
vn 0.7923 0.2920 -0.5358
vn 0.7744 0.5110 -0.3731
vn 0.3804 0.0710 -0.9221
vn 0.7935 0.0572 -0.6059
vn -0.1321 0.9588 0.2515
vn -0.0393 0.9932 0.1095
vn -0.1527 0.9150 0.3735
vn 0.8482 0.4308 -0.3083
vn 0.6250 0.2650 0.7343
vn 0.9141 0.0350 -0.4041
vn 0.9750 0.0874 0.2041
vn 0.9570 0.0614 0.2836
vn 0.7167 -0.1232 0.6864
vn 0.6622 -0.0519 -0.7475
vn 0.2377 0.9185 0.3160
vn 0.4697 0.6708 0.5739
vn 0.7491 0.0982 0.6551
vn 0.1212 0.0826 0.9892
vn 0.5374 0.0202 0.8431
vn 0.8148 0.1762 0.5523
vn 0.8468 0.0255 0.5314
vn -0.9990 -0.0428 -0.0081
vn -0.3872 0.9213 0.0359
vn -0.2713 0.8085 -0.5222
vn 0.1338 0.9867 -0.0921
vn 0.0814 0.8697 -0.4868
vn 0.8355 0.0587 -0.5463
vn 0.7087 -0.2627 -0.6548
vn 0.2166 -0.0522 -0.9749
vn -0.6277 0.0834 -0.7740
vn -0.6723 0.0471 -0.7387
vn -0.4903 -0.2524 -0.8342
vn -0.6208 -0.1163 -0.7753
vn 0.1085 0.9228 -0.3696
vn 0.3120 0.9134 -0.2615
vn 0.0730 0.9963 -0.0446
vn 0.3144 0.9316 -0.1824
vn 0.9643 -0.0555 -0.2588
vn 0.6999 0.2469 0.6702
vn 0.8386 0.3050 0.4514
vn 0.8325 0.4900 -0.2584
vn 0.8229 0.3930 -0.4103
vn 0.4891 0.5279 -0.6943
vn 0.2985 -0.0326 -0.9538
vn -0.3955 0.0567 0.9167
vn -0.9501 0.0074 -0.3118
vn -0.9990 0.0443 -0.0106
vn -0.6710 0.6168 0.4115
vn -0.7496 -0.0377 0.6608
vn -0.8550 -0.3617 -0.3717
vn -0.7433 -0.6424 -0.1864
vn -0.5480 0.1745 0.8181
vn 0.0863 0.0955 0.9917
vn 0.1390 0.0455 0.9892
vn -0.9296 -0.2926 0.2243
vn -0.1002 -0.4751 0.8742
vn 0.4050 -0.6778 0.6136
vn -0.5092 -0.8536 0.1100
vn -0.4934 -0.8210 0.2872
vn -0.2094 -0.9745 -0.0811
vn -0.0148 -0.9992 -0.0379
vn 0.1155 -0.9928 -0.0330
vn 0.1060 -0.9915 -0.0758
vn 0.0561 -0.9776 0.2029
vn -0.0456 -0.9979 0.0458
vn 0.0804 -0.9957 -0.0452
vn 0.3147 -0.9169 0.2457
vn 0.1420 -0.9533 0.2667
vn 0.0949 -0.9954 -0.0089
vn 0.0088 -0.9998 0.0181
vn 0.1145 -0.9926 0.0399
vn 0.0836 -0.9961 0.0293
vn -0.1094 0.9936 0.0273
vn 0.0007 0.9907 -0.1357
vn 0.4595 0.3462 0.8179
vn -0.0568 0.2680 0.9617
vn -0.1909 0.1841 0.9642
vn -0.8774 0.1379 0.4596
vn -0.1174 0.9773 0.1766
vn 0.4924 0.2095 0.8448
vn 0.3755 0.8195 0.4328
vn 0.9484 0.2162 0.2321
vn 0.7004 0.6957 0.1595
vn 0.8907 0.1366 -0.4337
vn 0.7626 0.5248 -0.3782
vn 0.4964 0.0401 -0.8672
vn 0.8053 0.0466 -0.5910
vn -0.1836 0.9609 0.2072
vn 0.0655 0.9880 0.1400
vn -0.1079 0.8904 0.4422
vn 0.9787 0.1204 -0.1662
vn 0.6818 0.0224 0.7312
vn 0.9024 0.0147 -0.4306
vn 0.9664 0.0144 0.2565
vn 0.6233 -0.0188 -0.7818
vn 0.0522 0.9971 -0.0545
vn 0.4133 0.4513 0.7909
vn 0.7511 0.1053 0.6518
vn 0.1530 0.0585 0.9865
vn 0.4596 -0.0024 0.8881
vn 0.7947 0.0113 0.6069
vn 0.7799 -0.0201 0.6256
vn -0.9936 0.0290 0.1089
vn -0.3584 0.9318 0.0580
vn -0.5357 0.8015 -0.2656
vn 0.8286 0.0529 -0.5573
vn 0.7863 -0.1957 -0.5860
vn 0.1957 -0.1114 -0.9743
vn -0.6088 0.0582 -0.7912
vn -0.6271 0.0835 -0.7744
vn -0.6279 -0.0654 -0.7755
vn -0.6781 -0.0696 -0.7317
vn 0.1527 0.9682 -0.1981
vn 0.2972 0.9211 -0.2514
vn 0.3013 0.9375 -0.1742
vn 0.1829 0.9709 0.1545
vn 0.9885 -0.0769 -0.1302
vn 0.8812 -0.0177 0.4724
vn 0.7944 0.1512 0.5883
vn 0.9445 0.3132 -0.0993
vn 0.7718 0.4726 -0.4253
vn 0.6849 0.3723 -0.6264
vn -0.1702 -0.0395 0.9846
vn -0.9264 0.0240 -0.3759
vn -0.9495 0.0097 -0.3135
vn 0.0708 0.0090 0.9974
vn -0.9049 -0.2733 -0.3262
vn -0.7118 -0.6930 -0.1148
vn -0.9055 -0.1215 0.4065
vn 0.0951 0.1459 0.9847
vn 0.1395 0.0491 0.9890
vn -0.9065 -0.1152 0.4061
vn -0.2250 -0.5162 0.8264
vn 0.6973 -0.5742 0.4291
vn -0.3567 -0.9277 0.1101
vn -0.0972 -0.9723 0.2125
vn -0.1593 -0.9770 -0.1416
vn -0.0227 -0.9936 -0.1108
vn 0.0481 -0.9981 -0.0377
vn 0.1809 -0.9834 0.0146
vn 0.0003 -0.9998 -0.0207
vn 0.0151 -0.9998 0.0095
vn 0.1048 -0.9944 0.0162
vn 0.0716 -0.8712 0.4856
vn 0.4408 -0.7700 0.4613
vn -0.0052 -0.9999 -0.0119
vn 0.0154 -0.9957 -0.0915
vn 0.1269 -0.9909 0.0447
vn 0.0956 -0.9954 -0.0094
vt 0.300179 0.374957
vt 0.206693 0.354643
vt 0.278552 0.315059
vt 0.263834 0.434118
vt 0.203005 0.445998
vt 0.291775 0.408805
vt 0.318470 0.375295
vt 0.311420 0.422882
vt 0.308846 0.348545
vt 0.302354 0.304823
vt 0.320440 0.331446
vt 0.521325 0.289478
vt 0.505473 0.264379
vt 0.528319 0.267956
vt 0.516963 0.241702
vt 0.500318 0.242631
vt 0.488942 0.274445
vt 0.483010 0.240825
vt 0.507102 0.192181
vt 0.489594 0.193106
vt 0.277490 0.453251
vt 0.497989 0.150735
vt 0.239598 0.457371
vt 0.510952 0.119894
vt 0.513650 0.149664
vt 0.472325 0.075537
vt 0.528319 0.118697
vt 0.190577 0.531801
vt 0.488298 0.313179
vt 0.519576 0.322442
vt 0.472618 0.263620
vt 0.472959 0.248985
vt 0.479848 0.304475
vt 0.474331 0.234863
vt 0.446235 0.129558
vt 0.467214 0.182841
vt 0.442746 0.171551
vt 0.451333 0.192998
vt 0.427754 0.187359
vt 0.460536 0.245970
vt 0.438098 0.222538
vt 0.456970 0.267924
vt 0.438375 0.230056
vt 0.411373 0.264683
vt 0.408571 0.244442
vt 0.408492 0.227598
vt 0.425749 0.280651
vt 0.470922 0.338234
vt 0.262284 0.303997
vt 0.021068 0.949340
vt 0.004539 0.931638
vt 0.033455 0.935203
vt 0.026664 0.904144
vt 0.005902 0.852116
vt 0.040731 0.862303
vt 0.074457 0.806928
vt 0.082845 0.829383
vt 0.506879 0.027002
vt 0.475272 0.019258
vt 0.492292 0.004539
vt 0.085932 0.846015
vt 0.092269 0.891298
vt 0.108860 0.926329
vt 0.945332 0.046225
vt 0.928423 0.004539
vt 0.956038 0.009270
vt 0.911100 0.039287
vt 0.936979 0.068239
vt 0.914751 0.074564
vt 0.454719 0.076320
vt 0.463961 0.086033
vt 0.434821 0.131020
vt 0.425508 0.155614
vt 0.428763 0.177443
vt 0.404352 0.182820
vt 0.403088 0.210526
vt 0.402304 0.153471
vt 0.411277 0.122845
vt 0.440794 0.069970
vt 0.449383 0.052133
vt 0.485988 0.038156
vt 0.306077 0.240996
vt 0.203132 0.330663
vt 0.183002 0.238974
vt 0.292415 0.245851
vt 0.275817 0.297960
vt 0.933812 0.114890
vt 0.911925 0.166487
vt 0.936589 0.143209
vt 0.924164 0.172772
vt 0.460177 0.319457
vt 0.418910 0.296085
vt 0.451646 0.335781
vt 0.482533 0.368851
vt 0.436634 0.328630
vt 0.702237 0.026359
vt 0.717927 0.038661
vt 0.704902 0.044983
vt 0.784874 0.044457
vt 0.763070 0.004539
vt 0.794148 0.039477
vt 0.945953 0.177113
vt 0.956038 0.174017
vt 0.802264 0.130672
vt 0.831414 0.137101
vt 0.822951 0.159054
vt 0.784282 0.184894
vt 0.802636 0.191691
vt 0.757817 0.124933
vt 0.748527 0.191691
vt 0.732943 0.185380
vt 0.691698 0.158382
vt 0.749262 0.011356
vt 0.717169 0.021315
vt 0.745268 0.095749
vt 0.826261 0.090708
vt 0.676416 0.135885
vt 0.701938 0.072925
vt 0.681372 0.067595
vt 0.690395 0.055670
vt 0.815112 0.064609
vt 0.677461 0.083670
vt 0.680606 0.107894
vt 0.677526 0.103713
vt 0.229660 0.531801
vt 0.108860 0.823693
vt 0.404465 0.188311
vt 0.326122 0.249062
vt 0.186146 0.322086
s 0
f 2/1/1 3/2/1 1/3/1
f 3/2/2 6/4/2 5/5/2
f 4/6/3 7/7/3 8/8/3
f 9/9/4 2/1/4 1/3/4
f 9/9/5 10/10/5 11/11/5
f 11/12/6 12/13/6 9/14/6
f 7/15/7 12/13/7 14/16/7
f 14/16/8 13/17/8 15/18/8
f 8/19/9 14/16/9 16/20/9
f 4/6/10 17/21/10 6/4/10
f 18/22/11 8/19/11 16/20/11
f 6/4/12 19/23/12 5/5/12
f 20/24/13 17/25/13 18/22/13
f 20/24/14 21/26/14 19/27/14
f 19/23/15 23/28/15 5/5/15
f 24/29/16 11/12/16 10/30/16
f 15/18/17 25/31/17 26/32/17
f 27/33/18 13/17/18 24/29/18
f 26/32/19 28/34/19 15/18/19
f 15/18/20 16/20/20 14/16/20
f 30/35/21 20/24/21 18/22/21
f 30/35/22 31/36/22 32/37/22
f 16/20/23 31/36/23 18/22/23
f 31/36/24 16/20/24 28/34/24
f 32/37/25 33/38/25 34/39/25
f 33/38/26 28/34/26 29/40/26
f 29/40/27 36/41/27 33/38/27
f 29/40/28 25/31/28 37/42/28
f 35/43/29 38/44/29 39/45/29
f 35/43/30 40/46/30 36/41/30
f 36/41/31 34/39/31 33/38/31
f 38/44/32 37/42/32 41/47/32
f 10/30/33 43/48/33 24/29/33
f 3/2/34 44/49/34 1/3/34
f 45/50/35 3/51/35 46/52/35
f 47/53/36 3/51/36 5/54/36
f 47/53/37 5/54/37 49/55/37
f 49/55/38 23/56/38 48/57/38
f 48/58/39 50/59/39 51/60/39
f 48/57/40 52/61/40 49/55/40
f 49/55/41 53/62/41 47/53/41
f 46/52/42 53/62/42 54/63/42
f 55/64/43 52/65/43 51/66/43
f 53/67/44 56/68/44 54/69/44
f 57/70/45 21/26/45 22/71/45
f 58/72/46 22/71/46 30/35/46
f 59/73/47 30/35/47 32/37/47
f 60/74/48 32/37/48 34/39/48
f 34/39/49 62/75/49 60/74/49
f 63/76/50 34/39/50 40/46/50
f 60/74/51 64/77/51 59/73/51
f 59/73/52 65/78/52 58/72/52
f 58/72/53 66/79/53 57/70/53
f 57/70/54 67/80/54 23/81/54
f 23/81/55 67/80/55 50/59/55
f 68/82/56 10/10/56 1/3/56
f 45/83/57 54/84/57 44/49/57
f 44/49/58 70/85/58 69/86/58
f 44/49/59 69/86/59 1/3/59
f 68/82/60 69/86/60 70/85/60
f 71/87/61 54/69/61 56/68/61
f 70/88/62 72/89/62 68/90/62
f 24/29/63 73/91/63 27/33/63
f 27/33/64 37/42/64 25/31/64
f 41/47/65 73/91/65 74/92/65
f 75/93/66 43/48/66 42/94/66
f 73/91/67 76/95/67 74/92/67
f 41/96/68 77/97/68 38/98/68
f 78/99/69 75/100/69 42/101/69
f 42/102/70 72/89/70 78/103/70
f 79/104/71 56/105/71 55/106/71
f 50/107/72 55/106/72 51/108/72
f 80/109/73 50/107/73 67/110/73
f 80/109/74 66/111/74 65/112/74
f 76/113/75 77/97/75 74/114/75
f 79/104/76 81/115/76 71/116/76
f 81/115/77 65/112/77 64/117/77
f 82/118/78 40/119/78 39/120/78
f 38/98/79 82/118/79 39/120/79
f 77/97/80 81/115/80 82/118/80
f 72/121/81 81/115/81 78/99/81
f 63/122/82 62/123/82 61/124/82
f 62/123/83 81/115/83 64/117/83
f 2/1/84 4/6/84 3/2/84
f 3/2/85 4/6/85 6/4/85
f 4/6/86 2/1/86 7/7/86
f 9/9/87 7/7/87 2/1/87
f 9/9/88 1/3/88 10/10/88
f 11/12/89 13/17/89 12/13/89
f 7/15/90 9/14/90 12/13/90
f 14/16/91 12/13/91 13/17/91
f 8/19/92 7/15/92 14/16/92
f 4/6/93 8/8/93 17/21/93
f 18/22/94 17/25/94 8/19/94
f 6/4/95 17/21/95 19/23/95
f 20/24/96 19/27/96 17/25/96
f 20/24/97 22/71/97 21/26/97
f 19/23/98 21/125/98 23/28/98
f 24/29/99 13/17/99 11/12/99
f 15/18/100 13/17/100 25/31/100
f 27/33/101 25/31/101 13/17/101
f 26/32/102 29/40/102 28/34/102
f 15/18/103 28/34/103 16/20/103
f 30/35/104 22/71/104 20/24/104
f 30/35/105 18/22/105 31/36/105
f 32/37/106 31/36/106 33/38/106
f 33/38/107 31/36/107 28/34/107
f 29/40/108 35/43/108 36/41/108
f 29/40/109 26/32/109 25/31/109
f 35/43/110 29/40/110 38/44/110
f 35/43/111 39/45/111 40/46/111
f 36/41/112 40/46/112 34/39/112
f 38/44/113 29/40/113 37/42/113
f 10/30/114 42/94/114 43/48/114
f 3/2/115 45/83/115 44/49/115
f 47/53/116 46/52/116 3/51/116
f 49/55/117 5/54/117 23/56/117
f 48/58/118 23/81/118 50/59/118
f 48/57/119 51/126/119 52/61/119
f 49/55/120 52/61/120 53/62/120
f 46/52/121 47/53/121 53/62/121
f 55/64/122 53/67/122 52/65/122
f 53/67/123 55/64/123 56/68/123
f 57/70/124 23/81/124 21/26/124
f 58/72/125 57/70/125 22/71/125
f 59/73/126 58/72/126 30/35/126
f 60/74/127 59/73/127 32/37/127
f 34/39/128 61/127/128 62/75/128
f 63/76/129 61/127/129 34/39/129
f 60/74/130 62/75/130 64/77/130
f 59/73/131 64/77/131 65/78/131
f 58/72/132 65/78/132 66/79/132
f 57/70/133 66/79/133 67/80/133
f 68/82/134 42/128/134 10/10/134
f 45/83/135 46/129/135 54/84/135
f 44/49/136 54/84/136 70/85/136
f 68/82/137 1/3/137 69/86/137
f 71/87/138 70/88/138 54/69/138
f 70/88/139 71/87/139 72/89/139
f 24/29/140 43/48/140 73/91/140
f 27/33/141 73/91/141 37/42/141
f 41/47/142 37/42/142 73/91/142
f 75/93/143 73/91/143 43/48/143
f 73/91/144 75/93/144 76/95/144
f 41/96/145 74/114/145 77/97/145
f 78/99/146 76/113/146 75/100/146
f 42/102/147 68/90/147 72/89/147
f 79/104/148 71/116/148 56/105/148
f 50/107/149 79/104/149 55/106/149
f 80/109/150 79/104/150 50/107/150
f 80/109/151 67/110/151 66/111/151
f 76/113/152 78/99/152 77/97/152
f 79/104/153 80/109/153 81/115/153
f 81/115/154 80/109/154 65/112/154
f 82/118/155 63/122/155 40/119/155
f 38/98/156 77/97/156 82/118/156
f 77/97/157 78/99/157 81/115/157
f 72/121/158 71/116/158 81/115/158
f 63/122/159 82/118/159 62/123/159
f 62/123/160 82/118/160 81/115/160
