# Blender 3.6.2
# www.blender.org
o Spruce
v 0.160752 7.853809 -0.234432
v 1.229210 2.724748 0.795433
v 0.517111 2.738363 1.434810
v 0.211684 2.943594 1.504237
v -1.411067 2.783713 0.618656
v -0.151044 7.940404 0.214246
v -0.274515 7.877612 -0.038498
v -0.923455 2.612307 -1.170771
v 0.581516 5.902071 -0.272297
v 0.988416 4.205764 -0.090656
v 0.432785 4.777288 0.689257
v 0.523880 3.263127 1.333167
v -0.031430 5.693889 0.715621
v -0.330492 6.096961 0.558569
v -0.639137 5.282657 -0.422860
v -0.908593 3.927653 -0.644739
v -0.074611 5.829004 -0.637493
v 0.428675 2.428906 -0.191403
v 0.453876 2.430360 0.420986
v 0.855057 2.423175 -1.107231
v 1.102749 2.425280 0.806075
v -0.212445 4.453625 -0.989829
v -1.327362 2.407020 -0.356284
v -0.551783 2.405630 0.916327
v 0.261284 1.817704 -0.331641
v 0.111837 2.192124 0.387312
v 0.175502 2.416741 0.434270
v -0.286168 -0.240733 0.366370
v -0.369838 -0.239876 -0.291434
v 1.101680 2.659039 -1.107364
v 1.504135 2.731403 0.227203
v 0.215096 8.072657 -0.048164
v -1.461370 2.523546 0.401050
v 0.123314 8.019346 0.208453
v -0.735592 4.770752 0.402773
v -0.077060 7.893512 -0.256374
v -0.774685 4.969473 0.035538
v 0.179060 4.661932 0.872663
v 0.770466 4.645253 0.340408
v 0.289254 6.049269 -0.543475
v 0.866741 2.839306 -1.288069
v 1.302558 2.399560 -0.361965
v 0.171775 2.392070 -1.195345
v 1.419895 2.477983 0.211566
v 0.550879 2.473743 1.321045
v -0.194155 2.473005 -1.443785
v 0.387284 -0.240020 -0.296282
v 0.446931 -0.240223 0.184284
v 0.060593 -0.239910 0.476249
v -0.479649 -0.239910 0.055336
v -0.058731 -0.240124 -0.484892
v -0.134042 2.434666 0.477610
v -0.101523 8.162886 -0.064593
v -0.117724 3.765397 1.163658
v -0.406145 4.294030 0.962278
v 0.789447 5.267700 0.128066
v 0.610528 5.884218 0.288103
v 0.522771 4.406699 -0.886152
v 0.891062 4.317383 -0.600251
v 1.240116 2.867360 -0.954944
v -1.533161 2.806698 0.197549
v -0.529597 4.756937 -0.716592
v -0.714748 3.746812 -0.926288
v 1.284866 3.185098 0.555568
v 1.406297 3.139301 0.137115
v -0.559811 3.100400 -1.330111
v -0.174127 2.795713 -1.523893
v -0.352709 7.238199 0.314800
v -0.592112 5.362291 0.535038
v -1.321797 2.749099 -0.614384
v -1.161279 2.532432 -0.682875
v -0.923082 2.400860 -0.564567
v -0.899003 2.433714 -1.094066
v -0.618604 2.597184 1.167612
v -1.016965 2.433569 0.953176
v -0.235608 2.407098 1.353952
v -0.459434 2.761962 1.359203
v -1.006831 2.682739 1.048670
v 0.407122 2.138702 -0.013522
v -0.311758 2.183182 -0.271925
v -0.011098 2.335635 -0.414992
v -0.152537 2.336190 0.374689
v -0.317223 2.199506 0.241726
v 0.319081 2.199506 0.241726
v -0.404679 2.208362 0.009226
v 0.431582 2.407157 0.144264
v 0.238555 2.429850 -0.397876
v -0.447696 2.431151 0.185032
v -0.334811 2.417581 -0.364812
vn 0.7145 0.1672 -0.6793
vn -0.2302 0.2003 0.9523
vn -0.8835 0.3047 0.3559
vn -0.7333 0.1993 -0.6500
vn 0.9408 -0.3034 -0.1510
vn -0.4731 0.2628 -0.8409
vn -0.7226 0.2366 -0.6495
vn -0.9667 0.2150 -0.1390
vn -0.9657 0.1711 0.1954
vn -0.7362 -0.2159 0.6414
vn -0.6194 0.1962 0.7602
vn -0.5051 0.2329 0.8310
vn -0.6592 0.2991 0.6899
vn -0.9000 0.3361 0.2777
vn 0.6936 0.3169 0.6470
vn 0.9235 0.3151 -0.2190
vn 0.9607 0.1837 -0.2080
vn 0.6572 0.1089 -0.7458
vn 0.1515 0.2766 -0.9490
vn 0.3629 -0.3799 -0.8508
vn -0.9171 0.3021 -0.2602
vn 0.2062 0.5799 -0.7882
vn -0.7625 -0.3220 0.5612
vn -0.1989 0.2523 0.9470
vn 0.0908 -0.9777 0.1893
vn 0.2913 -0.9540 0.0708
vn -0.3874 -0.4081 -0.8267
vn 0.0968 -0.8956 -0.4343
vn -0.1809 -0.9708 -0.1579
vn 0.0415 -0.9988 -0.0266
vn 0.0042 -0.9993 0.0377
vn 0.0184 -0.9988 0.0458
vn -0.2126 0.7819 0.5861
vn -0.8126 0.5173 0.2684
vn -0.7017 0.3698 -0.6090
vn -0.2376 0.2299 0.9438
vn 0.6309 0.2434 -0.7367
vn 0.9452 0.2093 0.2505
vn -0.9601 -0.0451 0.2759
vn 0.7246 0.2725 -0.6330
vn 0.8934 0.1179 0.4336
vn 0.9307 0.2762 0.2398
vn 0.8926 0.3958 0.2157
vn -0.4742 0.2614 -0.8407
vn -0.8052 -0.3237 -0.4969
vn -0.7521 -0.3891 -0.5319
vn 0.0003 -0.7952 0.6063
vn -0.5456 -0.3554 0.7589
vn -0.5569 -0.7253 0.4048
vn 0.9476 0.0422 0.3168
vn 0.8776 -0.2999 0.3741
vn 0.7448 -0.0934 0.6607
vn 0.5526 -0.3177 0.7705
vn 0.7348 -0.0459 -0.6768
vn 0.9965 -0.0826 -0.0140
vn 0.9516 -0.2089 -0.2255
vn -0.1368 -0.1654 0.9767
vn 0.0187 -0.9994 0.0285
vn 0.0224 -0.9996 0.0177
vn 0.0525 -0.9955 0.0792
vn -0.5711 -0.5394 0.6187
vn -0.0614 0.3336 -0.9407
vn 0.8568 0.1940 -0.4779
vn 0.9032 0.2198 0.3687
vn -0.0414 0.2155 0.9756
vn -0.2193 0.1997 0.9550
vn 0.7030 0.2599 0.6619
vn 0.9578 -0.1678 -0.2332
vn -0.5663 0.3348 -0.7531
vn -0.7208 0.2347 -0.6522
vn -0.7223 0.3419 -0.6012
vn -0.9038 0.3093 -0.2957
vn -0.9709 0.1625 -0.1761
vn -0.9859 0.1552 0.0627
vn -0.6931 0.2937 0.6583
vn -0.5398 0.1658 0.8253
vn -0.2732 0.2728 0.9225
vn 0.4997 0.2291 0.8354
vn 0.3898 0.1714 0.9048
vn 0.1178 0.2188 -0.9686
vn 0.7363 0.3451 0.5821
vn 0.7359 0.1231 0.6658
vn 0.6319 0.1724 0.7556
vn 0.9309 0.3454 0.1185
vn 0.9246 0.0974 0.3682
vn 0.8744 0.1326 0.4668
vn 0.9629 0.1882 -0.1934
vn 0.9665 0.2172 -0.1371
vn 0.9634 0.2138 -0.1616
vn 0.1195 0.1759 -0.9771
vn 0.8777 -0.3269 -0.3503
vn 0.0667 -0.3203 0.9450
vn -0.9395 -0.3221 -0.1167
vn -0.3058 -0.9477 0.0917
vn 0.6478 -0.2296 0.7264
vn 0.8418 -0.3406 0.4189
vn 0.2643 -0.3906 -0.8818
vn -0.0594 -0.9716 -0.2290
vn 0.0449 -0.9986 -0.0285
vn -0.0618 -0.9967 0.0524
vn -0.0251 -0.9988 0.0431
vn 0.0536 -0.9965 -0.0638
vn -0.0328 -0.9995 0.0037
vn 0.0243 -0.9994 0.0262
vn -0.0105 -0.9994 -0.0327
vn 0.6162 0.3239 -0.7179
vn -0.0572 -0.9978 0.0338
vn -0.0448 -0.9969 -0.0639
vn 0.2494 0.9265 0.2817
vn -0.2017 0.2221 0.9539
vn 0.3003 0.2031 0.9320
vn -0.7059 0.2657 -0.6566
vn 0.9571 0.2611 -0.1256
vn -0.8994 0.3363 0.2791
vn -0.5462 -0.1697 -0.8203
vn -0.2481 0.1756 -0.9527
vn -0.7442 0.2008 -0.6370
vn 0.3289 0.1755 0.9279
vn -0.1146 0.3408 0.9331
vn 0.1560 0.3434 0.9261
vn 0.4246 0.3758 0.8237
vn -0.2341 0.2932 -0.9269
vn 0.1983 0.3047 -0.9316
vn -0.3417 -0.3242 0.8821
vn -0.8290 0.0772 0.5539
vn -0.9359 0.1565 0.3155
vn -0.7935 -0.4630 -0.3950
vn -0.4530 -0.8883 -0.0757
vn -0.2471 -0.8559 -0.4543
vn -0.9575 -0.1637 -0.2376
vn -0.9530 0.0253 -0.3018
vn -0.1769 -0.1260 0.9761
vn -0.3021 0.0126 0.9532
vn -0.0275 0.0371 0.9989
vn 0.6028 0.0165 0.7977
vn 0.9924 0.0064 -0.1232
vn 0.8894 0.0466 -0.4548
vn -0.9349 0.0353 0.3530
vn -0.4428 0.0325 -0.8960
vn -0.9343 -0.2069 -0.2903
vn -0.8490 0.0162 0.5282
vn -0.6433 0.0309 0.7650
vn 0.3895 0.0080 -0.9210
vn 0.3265 0.0196 -0.9450
vn -0.5280 0.0195 -0.8490
vn 0.1067 -0.1030 -0.9889
vn -0.5632 -0.1171 0.8180
vn -0.2345 -0.3780 -0.8956
vn -0.8593 -0.4087 0.3076
vn 0.0006 -1.0000 -0.0006
vn 0.0539 -0.7263 0.6853
vn 0.0679 -0.6522 0.7550
vn 0.8996 -0.4352 -0.0360
vn 0.1735 0.6130 -0.7708
vn 0.6635 0.1340 0.7361
vn 0.1503 0.2312 -0.9612
vn 0.1426 0.1798 -0.9733
vn 0.6330 -0.6621 -0.4011
vn -0.0616 -0.4008 0.9141
vn 0.6491 -0.2485 0.7190
vn 0.8572 -0.3103 0.4111
vn 0.2239 -0.2479 -0.9426
vn 0.0386 -0.9988 -0.0294
vn 0.6282 0.3197 -0.7093
vn -0.6745 0.2480 -0.6954
vn -0.3568 -0.0389 -0.9334
vn -0.3531 -0.5440 0.7612
vn -0.9486 0.0231 -0.3156
vn 0.5745 0.0108 0.8184
vn -0.9792 -0.0310 -0.2003
vn -0.0011 -1.0000 -0.0004
vn 0.0004 -1.0000 -0.0005
vn 0.0014 -1.0000 0.0030
vn -0.0022 -1.0000 -0.0013
vt 0.299418 0.172004
vt 0.349671 0.026561
vt 0.329419 0.192696
vt 0.594752 0.267264
vt 0.632062 0.449681
vt 0.579384 0.308118
vt 0.606669 0.457645
vt 0.601430 0.397318
vt 0.311469 0.004056
vt 0.332806 0.016246
vt 0.193576 0.193038
vt 0.622373 0.534135
vt 0.602507 0.549648
vt 0.562315 0.525032
vt 0.205545 0.284734
vt 0.189096 0.244643
vt 0.262481 0.177869
vt 0.141677 0.317677
vt 0.053121 0.358160
vt 0.127321 0.289591
vt 0.146469 0.187922
vt 0.484940 0.251789
vt 0.501498 0.221335
vt 0.446411 0.747636
vt 0.493358 0.725872
vt 0.500571 0.747636
vt 0.537882 0.258208
vt 0.532156 0.160368
vt 0.445917 0.047797
vt 0.494883 0.035371
vt 0.406037 0.074744
vt 0.666353 0.041371
vt 0.617400 0.183978
vt 0.581963 0.051841
vt 0.336884 0.335930
vt 0.360484 0.424205
vt 0.274025 0.445365
vt 0.368712 0.011686
vt 0.358933 0.250488
vt 0.235355 0.439824
vt 0.255164 0.458231
vt 0.261038 0.309958
vt 0.513505 0.477170
vt 0.498340 0.502466
vt 0.482975 0.466592
vt 0.004056 0.310103
vt 0.365408 0.574252
vt 0.343808 0.603085
vt 0.341535 0.578741
vt 0.434529 0.717314
vt 0.543806 0.108157
vt 0.612625 0.662483
vt 0.567402 0.702834
vt 0.616515 0.603264
vt 0.413976 0.537442
vt 0.395068 0.593401
vt 0.380175 0.589357
vt 0.450604 0.534747
vt 0.555468 0.613091
vt 0.522626 0.648126
vt 0.523145 0.699632
vt 0.488083 0.647309
vt 0.409660 0.658871
vt 0.419734 0.625155
vt 0.498812 0.578891
vt 0.349643 0.551449
vt 0.322282 0.560226
vt 0.318882 0.588594
vt 0.296255 0.325633
vt 0.676912 0.454248
vt 0.660010 0.273864
vt 0.676533 0.222928
vt 0.376823 0.096144
vt 0.378879 0.066852
vt 0.648109 0.004056
vt 0.698739 0.006186
vt 0.701097 0.040594
vt 0.701097 0.133826
vt 0.376823 0.648328
vt 0.395459 0.632031
vt 0.535920 0.727442
vt 0.563347 0.739625
vt 0.688967 0.421470
vt 0.890825 0.422628
vt 0.694168 0.443817
vt 0.671994 0.432355
vt 0.671441 0.402300
vt 0.689775 0.400926
vt 0.670993 0.457592
vt 0.721533 0.472747
vt 0.671810 0.479056
vt 0.677677 0.589551
vt 0.688649 0.611975
vt 0.669512 0.616768
vt 0.468346 0.606224
vt 0.538391 0.628835
vt 0.537895 0.598650
vt 0.515545 0.639655
vt 0.488872 0.594802
vt 0.654783 0.450284
vt 0.538562 0.465757
vt 0.137371 0.379578
vt 0.091416 0.398008
vt 0.549906 0.031316
vt 0.589763 0.177305
vt 0.658652 0.169894
vt 0.368712 0.456750
vt 0.629871 0.716244
vt 0.401585 0.715802
vt 0.645733 0.593172
vt 0.631934 0.679403
vt 0.520762 0.579209
vt 0.139987 0.437478
vt 0.156255 0.416638
vt 0.572099 0.010644
vt 0.892087 0.557283
vt 0.689086 0.525564
vt 0.892330 0.528630
vt 0.891424 0.586656
vt 0.890246 0.616768
vt 0.888760 0.382935
vt 0.891960 0.461335
vt 0.687695 0.572190
vt 0.686951 0.550958
vt 0.680382 0.497641
vt 0.892406 0.499795
vt 0.669614 0.519967
vt 0.667832 0.563870
vt 0.003094 0.856374
vt 0.071846 0.850126
vt 0.052700 0.909279
vt 0.538405 0.628857
vt 0.365408 0.600528
vt 0.401186 0.511333
vt 0.022550 0.909279
vt 0.003089 0.886528
vt 0.035666 0.833402
vt 0.075455 0.889820
s 0
f 40/1/1 1/2/1 9/3/1
f 13/4/2 6/5/2 14/6/2
f 6/5/3 7/7/3 68/8/3
f 7/9/4 36/10/4 15/11/4
f 31/12/5 44/13/5 42/14/5
f 22/15/6 62/16/6 17/17/6
f 63/18/7 70/19/7 16/20/7
f 37/21/8 15/11/8 16/20/8
f 7/7/9 37/22/9 35/23/9
f 5/24/10 75/25/10 78/26/10
f 14/6/11 69/27/11 55/28/11
f 78/29/12 77/30/12 55/28/12
f 5/31/13 78/29/13 35/23/13
f 35/23/14 37/22/14 5/31/14
f 64/32/15 11/33/15 12/34/15
f 10/35/16 65/36/16 60/37/16
f 9/3/17 32/38/17 56/39/17
f 41/40/18 60/37/18 30/41/18
f 22/15/19 58/42/19 41/40/19
f 30/43/20 20/44/20 41/45/20
f 70/19/21 61/46/21 37/21/21
f 32/47/22 36/48/22 53/49/22
f 33/50/23 75/25/23 5/24/23
f 77/30/24 54/51/24 55/28/24
f 45/52/25 76/53/25 21/54/25
f 21/54/26 42/14/26 44/13/26
f 46/55/27 73/56/27 8/57/27
f 46/55/28 20/44/28 43/58/28
f 19/59/29 42/14/29 76/53/29
f 52/60/30 76/53/30 24/61/30
f 88/62/31 23/63/31 72/64/31
f 72/64/32 43/58/32 87/65/32
f 34/66/33 53/49/33 6/67/33
f 6/67/34 53/49/34 7/68/34
f 7/68/35 53/49/35 36/48/35
f 54/51/36 13/4/36 55/28/36
f 40/1/37 59/69/37 58/42/37
f 32/70/38 57/71/38 56/72/38
f 5/31/39 61/73/39 33/74/39
f 9/3/40 59/69/40 40/1/40
f 2/75/41 31/76/41 64/32/41
f 65/77/42 64/32/42 31/76/42
f 10/78/43 64/32/43 65/77/43
f 63/18/44 62/16/44 22/15/44
f 8/57/45 73/56/45 70/79/45
f 70/79/46 71/80/46 23/63/46
f 75/25/47 24/61/47 74/81/47
f 77/82/48 74/81/48 76/53/48
f 74/81/49 24/61/49 76/53/49
f 84/83/50 48/84/50 79/85/50
f 86/86/51 84/83/51 79/85/51
f 27/87/52 84/83/52 86/86/52
f 27/87/53 26/88/53 84/83/53
f 18/89/54 25/90/54 87/91/54
f 18/89/55 86/86/55 79/85/55
f 79/85/56 25/90/56 18/89/56
f 82/92/57 26/93/57 27/94/57
f 72/64/58 89/95/58 88/62/58
f 87/65/59 89/95/59 72/64/59
f 19/59/60 27/96/60 86/97/60
f 52/60/61 88/62/61 82/98/61
f 87/65/62 81/99/62 89/95/62
f 9/3/63 1/2/63 32/38/63
f 57/71/64 32/70/64 34/100/64
f 34/100/65 6/5/65 13/4/65
f 14/6/66 6/5/66 68/8/66
f 12/34/67 2/75/67 64/32/67
f 60/101/68 31/12/68 42/14/68
f 63/18/69 22/15/69 66/102/69
f 66/102/70 70/19/70 63/18/70
f 8/103/71 70/19/71 66/102/71
f 70/19/72 37/21/72 16/20/72
f 37/21/73 7/9/73 15/11/73
f 68/8/74 7/7/74 35/23/74
f 55/28/75 35/23/75 78/29/75
f 14/6/76 68/8/76 69/27/76
f 54/51/77 77/30/77 4/104/77
f 38/105/78 11/33/78 13/4/78
f 11/33/79 34/100/79 13/4/79
f 58/42/80 17/17/80 40/1/80
f 64/32/81 39/106/81 11/33/81
f 39/106/82 57/71/82 11/33/82
f 57/71/83 34/100/83 11/33/83
f 10/78/84 39/106/84 64/32/84
f 10/78/85 56/72/85 39/106/85
f 57/71/86 39/106/86 56/72/86
f 60/37/87 65/36/87 31/107/87
f 59/69/88 9/3/88 10/35/88
f 9/3/89 56/39/89 10/35/89
f 40/1/90 36/10/90 1/2/90
f 42/14/91 30/43/91 60/101/91
f 45/52/92 4/108/92 76/53/92
f 33/50/93 61/109/93 23/63/93
f 33/50/94 23/63/94 75/25/94
f 45/52/95 2/110/95 3/111/95
f 44/13/96 2/110/96 21/54/96
f 46/55/97 41/45/97 20/44/97
f 46/55/98 43/58/98 73/56/98
f 88/62/99 24/61/99 23/63/99
f 18/112/100 87/65/100 43/58/100
f 18/112/101 43/58/101 42/14/101
f 43/58/102 20/44/102 42/14/102
f 19/59/103 18/112/103 42/14/103
f 76/53/104 42/14/104 21/54/104
f 52/60/105 19/59/105 76/53/105
f 41/40/106 59/69/106 60/37/106
f 23/63/107 24/61/107 75/25/107
f 72/64/108 73/56/108 43/58/108
f 32/47/109 53/49/109 34/66/109
f 13/4/110 14/6/110 55/28/110
f 38/105/111 13/4/111 54/51/111
f 16/20/112 62/16/112 63/18/112
f 10/35/113 60/37/113 59/69/113
f 5/31/114 37/22/114 61/73/114
f 46/113/115 66/102/115 67/114/115
f 17/17/116 62/16/116 36/10/116
f 15/11/117 36/10/117 62/16/117
f 4/104/118 3/115/118 12/34/118
f 4/104/119 38/105/119 54/51/119
f 38/105/120 4/104/120 12/34/120
f 11/33/121 38/105/121 12/34/121
f 66/102/122 22/15/122 67/114/122
f 22/15/123 41/40/123 67/114/123
f 74/81/124 78/26/124 75/25/124
f 35/23/125 55/28/125 69/27/125
f 68/8/126 35/23/126 69/27/126
f 70/79/127 73/56/127 71/80/127
f 71/80/128 73/56/128 72/64/128
f 71/80/129 72/64/129 23/63/129
f 61/109/130 70/79/130 23/63/130
f 50/116/131 80/117/131 29/118/131
f 4/108/132 77/82/132 76/53/132
f 82/92/133 28/119/133 49/120/133
f 26/93/134 82/92/134 49/120/134
f 48/84/135 26/88/135 49/121/135
f 79/85/136 48/84/136 47/122/136
f 25/90/137 79/85/137 47/122/137
f 83/123/138 85/124/138 50/116/138
f 80/117/139 81/125/139 51/126/139
f 85/124/140 89/127/140 80/117/140
f 83/123/141 50/116/141 28/119/141
f 82/92/142 83/123/142 28/119/142
f 25/90/143 47/122/143 51/126/143
f 81/125/144 25/90/144 51/126/144
f 80/117/145 51/126/145 29/118/145
f 87/91/146 25/90/146 81/125/146
f 88/128/147 83/123/147 82/92/147
f 89/127/148 81/125/148 80/117/148
f 88/128/149 85/124/149 83/123/149
f 51/129/150 48/130/150 28/131/150
f 52/60/151 82/98/151 27/132/151
f 19/59/152 52/60/152 27/132/152
f 18/112/153 19/59/153 86/97/153
f 32/47/154 1/133/154 36/48/154
f 12/34/155 3/115/155 2/75/155
f 58/42/156 22/15/156 17/17/156
f 40/1/157 17/17/157 36/10/157
f 42/14/158 20/44/158 30/43/158
f 45/52/159 3/111/159 4/108/159
f 45/52/160 21/54/160 2/110/160
f 44/13/161 31/12/161 2/110/161
f 46/55/162 67/134/162 41/45/162
f 88/62/163 52/60/163 24/61/163
f 41/40/164 58/42/164 59/69/164
f 16/20/165 15/11/165 62/16/165
f 46/113/166 8/103/166 66/102/166
f 74/81/167 77/82/167 78/26/167
f 50/116/168 85/124/168 80/117/168
f 48/84/169 84/83/169 26/88/169
f 85/124/170 88/128/170 89/127/170
f 50/135/171 29/136/171 51/129/171
f 51/129/172 47/137/172 48/130/172
f 48/130/173 49/138/173 28/131/173
f 28/131/174 50/135/174 51/129/174
