# Blender 3.6.2
# www.blender.org
o Stump
v 0.076456 -0.231339 0.269010
v -0.248523 -0.234056 -0.084817
v 0.166328 0.377166 -0.416832
v 0.347006 -0.173580 -0.190423
v -0.275696 0.324537 0.349477
v -0.442110 0.331901 0.151930
v -0.231478 0.398852 -0.334303
v -0.607658 -0.087559 0.534221
v -0.728844 -0.100937 0.410244
v 0.526544 0.049415 0.214807
v 0.433087 0.067951 0.375926
v 0.160762 -0.024114 -0.989047
v -0.132175 -0.031973 -0.995638
v 0.222221 -0.191986 0.362762
v -0.419668 -0.181392 0.044939
v 0.720587 -0.243136 0.425815
v 0.206615 -0.226773 -0.841118
v -0.197819 -0.228520 -0.836511
v 0.140211 -0.236099 -1.023406
v -0.137590 -0.231672 -1.016310
v 0.652544 -0.247910 0.544981
v 0.255798 -0.209172 -0.315491
v 0.248058 -0.240021 -0.063687
v -0.047817 0.562970 -0.436633
v -0.394555 0.703586 0.052542
v -0.390672 0.345836 0.283408
v 0.445147 -0.191106 0.060848
v -0.715236 -0.240773 0.511920
v -0.710445 -0.228663 0.396098
v -0.708401 -0.112618 0.505311
v -0.043161 0.266486 -0.633891
v 0.089640 0.238493 -0.677644
v -0.175621 0.138554 -0.562134
v -0.067922 -0.242318 -1.094006
v -0.038486 -0.098291 -1.120992
v -0.046003 0.012462 -1.058210
v 0.093584 -0.009297 -1.065669
v 0.708216 -0.145085 0.425252
v 0.024728 0.912670 -0.401039
v 0.228117 0.864126 -0.313104
v 0.330131 0.843244 -0.143099
v 0.040652 0.922230 0.374088
v -0.181006 0.974926 0.338600
v -0.350429 1.013188 0.171160
v -0.392412 1.020535 -0.007808
v -0.363722 1.008209 -0.175308
v -0.207231 0.970075 -0.340589
v 0.089318 0.570405 -0.424635
v 0.412815 0.310580 0.121983
v 0.308299 0.330451 0.309999
v 0.007324 -0.179599 0.382600
v -0.276264 0.649597 0.286090
v -0.374211 -0.177376 -0.103489
v 0.344449 0.845666 0.117144
v 0.230100 0.054114 -0.408094
v -0.136081 0.100394 0.369693
v -0.260074 -0.182795 -0.354564
v 0.041373 -0.218696 -1.122692
v -0.595937 -0.228508 0.551383
v -0.137234 -0.186338 0.380999
v 0.241668 0.870825 0.296555
v 0.656983 -0.149182 0.528062
vn -0.0123 -0.9999 0.0060
vn -0.9761 0.1650 -0.1417
vn -0.9083 0.0591 -0.4142
vn -0.9561 0.0191 -0.2923
vn 0.9320 0.1754 -0.3171
vn 0.8486 0.3212 -0.4203
vn -0.9741 0.0632 0.2172
vn -0.3178 0.5891 0.7430
vn -0.7412 0.6282 0.2366
vn -0.1242 -0.9863 -0.1083
vn 0.8009 0.1062 -0.5893
vn 0.7810 -0.6223 -0.0522
vn -0.6607 0.3358 -0.6714
vn -0.2241 -0.1350 -0.9652
vn 0.0307 0.4945 -0.8686
vn 0.6218 0.6629 -0.4170
vn -0.9463 0.0586 -0.3180
vn 0.2141 -0.9764 -0.0281
vn 0.0325 -0.9994 -0.0077
vn 0.4304 0.1355 -0.8924
vn 0.8260 0.0399 -0.5622
vn 0.0823 0.0840 -0.9931
vn -0.8179 -0.0276 -0.5746
vn -0.4675 0.1684 0.8678
vn -0.8952 -0.0424 0.4436
vn -0.4967 0.0053 0.8679
vn 0.1634 0.1891 0.9683
vn 0.3744 0.0692 0.9247
vn 0.0922 0.0049 0.9957
vn -0.4945 0.0114 -0.8691
vn 0.1278 -0.9474 -0.2933
vn 0.9719 0.1880 -0.1413
vn -0.4348 0.1711 0.8841
vn 0.3495 -0.4220 0.8365
vn -0.9891 -0.1364 -0.0552
vn -0.2263 0.1347 0.9647
vn -0.7478 0.1040 -0.6558
vn -0.8545 -0.5158 -0.0614
vn -0.1331 0.6008 -0.7883
vn -0.0331 -0.9994 0.0090
vn 0.0236 -0.9990 0.0383
vn -0.0112 -0.9997 -0.0200
vn -0.9526 0.0572 -0.2989
vn -0.9463 0.0351 -0.3215
vn -0.7670 -0.0396 -0.6404
vn -0.6054 -0.5499 -0.5754
vn -0.0129 0.0395 0.9991
vn -0.3979 -0.4418 0.8041
vn -0.2956 0.0912 0.9510
vn 0.4378 0.7341 -0.5191
vn 0.3163 0.0361 0.9480
vn -0.7451 0.6279 0.2250
vn -0.3549 0.5950 0.7211
vn 0.0550 -0.9885 0.1409
vn -0.2078 -0.9768 -0.0525
vn 0.2365 0.2324 0.9434
vn 0.0219 -0.9994 -0.0275
vn 0.7834 0.1247 -0.6089
vn -0.6312 0.6674 -0.3953
vn -0.6900 0.3934 -0.6075
vn 0.9934 0.0635 -0.0951
vn -0.7758 0.0857 -0.6252
vn 0.7547 0.0330 -0.6553
vn 0.2672 0.1906 -0.9446
vn 0.1022 0.8389 -0.5347
vn -0.9856 -0.0251 -0.1670
vn -0.9678 0.1856 -0.1700
vn 0.7960 0.0970 -0.5975
vn 0.8575 0.0008 -0.5145
vn 0.4211 0.1412 -0.8960
vn -0.7233 0.0231 -0.6902
vn -0.9719 0.0504 0.2301
vn -0.8436 0.2368 0.4820
vn -0.6904 0.0862 0.7183
vn -0.1517 0.0273 0.9880
vn 0.9905 0.1260 -0.0557
vn 0.3209 0.0427 0.9461
vn 0.9317 0.0323 -0.3617
vn -0.2163 0.1432 -0.9658
vn 0.3543 -0.9130 -0.2021
vn 0.2368 0.9714 -0.0154
vn 0.9396 -0.0359 -0.3404
vn 0.9831 0.1245 -0.1341
vn 0.4799 -0.7421 -0.4680
vn 0.8180 -0.1182 -0.5629
vn 0.8686 0.1191 0.4809
vn -0.3520 0.2397 0.9048
vn -0.0151 -0.9134 0.4068
vn 0.0372 -0.9007 0.4329
vn -0.3890 -0.9100 -0.1438
vn -0.3867 -0.9089 -0.1562
vn 0.5485 0.7788 0.3044
vn 0.8873 0.1145 0.4467
vn 0.7902 0.4734 0.3892
vn 0.0427 0.5539 -0.8315
vn -0.3195 0.0658 0.9453
vn 0.3333 0.1412 0.9322
vn -0.1381 -0.9903 -0.0166
vn -0.7420 0.5952 -0.3085
vn -0.6972 0.3815 -0.6069
vn -0.7425 0.0263 -0.6694
vn 0.7099 0.0147 -0.7041
vn 0.0116 0.8579 -0.5137
vn -0.9911 0.0007 -0.1332
vn -0.8898 0.3324 0.3129
vn -0.0706 0.0098 0.9975
vn 0.9862 0.0812 -0.1445
vn 0.4701 -0.8777 -0.0931
vn 0.2360 0.9712 -0.0320
vn 0.2041 0.9787 -0.0203
vn 0.2430 0.9697 -0.0267
vn 0.2414 0.9704 0.0046
vn 0.2718 0.9621 -0.0243
vn 0.2374 0.9712 -0.0183
vn 0.2330 0.9724 -0.0141
vn 0.2263 0.9738 -0.0227
vn 0.8733 0.1159 0.4732
vn 0.5675 0.7881 0.2385
vn 0.8667 0.0462 0.4967
vn 0.7811 0.4815 0.3977
vt 0.720340 0.241107
vt 0.605860 0.234847
vt 0.651889 0.009802
vt 0.208700 0.827225
vt 0.135258 0.772008
vt 0.231332 0.720941
vt 0.026449 0.496279
vt 0.163096 0.531852
vt 0.036316 0.556631
vt 0.124459 0.417575
vt 0.018889 0.463111
vt 0.087656 0.034154
vt 0.162403 0.039687
vt 0.026800 0.080429
vt 0.014816 0.727116
vt 0.085295 0.706447
vt 0.011643 0.772290
vt 0.732450 0.760381
vt 0.749873 0.768838
vt 0.714736 0.782410
vt 0.796285 0.639949
vt 0.816779 0.663853
vt 0.725192 0.740488
vt 0.500121 0.367372
vt 0.501268 0.341941
vt 0.667832 0.849856
vt 0.731156 0.872789
vt 0.677989 0.946916
vt 0.712033 0.066091
vt 0.725196 0.183562
vt 0.187221 0.687658
vt 0.174760 0.671226
vt 0.191078 0.657707
vt 0.221225 0.650656
vt 0.201622 0.628945
vt 0.164182 0.651145
vt 0.148437 0.642121
vt 0.228607 0.675150
vt 0.697324 0.025702
vt 0.209390 0.033712
vt 0.266039 0.087552
vt 0.252869 0.130960
vt 0.216186 0.003089
vt 0.288482 0.041072
vt 0.287546 0.462120
vt 0.193284 0.362546
vt 0.121905 0.386634
vt 0.116568 0.357695
vt 0.277861 0.387700
vt 0.212578 0.423445
vt 0.267302 0.337472
vt 0.068396 0.323784
vt 0.245416 0.236963
vt 0.255953 0.286248
vt 0.122514 0.221082
vt 0.005154 0.290131
vt 0.003089 0.240989
vt 0.288482 0.513274
vt 0.207605 0.570775
vt 0.676255 0.003089
vt 0.017130 0.643788
vt 0.705468 0.973882
vt 0.711043 0.951730
vt 0.768051 0.906207
vt 0.631152 0.347548
vt 0.525874 0.376758
vt 0.679333 0.317329
vt 0.740663 0.794903
vt 0.803190 0.973882
vt 0.815792 0.852289
vt 0.843792 0.815403
vt 0.843792 0.685186
vt 0.598924 0.171751
vt 0.621845 0.065496
vt 0.097543 0.740010
vt 0.811212 0.376758
vt 0.076958 0.827225
vt 0.562038 0.260373
vt 0.003108 0.322998
vt 0.711795 0.343916
vt 0.695986 0.755824
vt 0.667832 0.643840
vt 0.734728 0.622945
vt 0.635998 0.026416
vt 0.826009 0.350717
vt 0.779096 0.821580
vt 0.032380 0.793239
vt 0.003089 0.576952
vt 0.131104 0.590304
vt 0.175992 0.606125
vt 0.284304 0.426137
vt 0.700093 0.936376
vt 0.122473 0.171927
vt 0.243942 0.189591
vt 0.011733 0.140065
vt 0.287121 0.567900
vt 0.746681 0.211118
vt 0.768293 0.267077
vt 0.300139 0.795991
vt 0.465070 0.805659
vt 0.361318 0.922336
vt 0.024703 0.044350
vt 0.663233 0.347027
vt 0.574261 0.228350
vt 0.315047 0.893599
vt 0.294660 0.845698
vt 0.333549 0.762897
vt 0.391263 0.751404
vt 0.434244 0.764762
vt 0.465070 0.861309
vt 0.437828 0.905724
vt 0.402849 0.921733
s 0
f 23/1/1 2/2/1 34/3/1
f 57/4/2 33/5/2 18/6/2
f 53/7/3 7/8/3 57/9/3
f 6/10/4 53/7/4 15/11/4
f 55/12/5 3/13/5 4/14/5
f 3/15/6 32/16/6 48/17/6
f 30/18/7 9/19/7 28/20/7
f 5/21/8 26/22/8 8/23/8
f 26/22/9 9/19/9 30/18/9
f 2/2/10 28/24/10 29/25/10
f 27/26/11 10/27/11 16/28/11
f 23/1/12 17/29/12 22/30/12
f 13/31/13 36/32/13 35/33/13
f 34/34/14 35/33/14 58/35/14
f 36/32/15 37/36/15 35/33/15
f 12/37/16 37/36/16 32/16/16
f 18/6/17 13/31/17 20/38/17
f 23/1/18 19/39/18 17/29/18
f 34/3/19 19/39/19 23/1/19
f 48/40/20 40/41/20 3/13/20
f 3/13/21 41/42/21 4/14/21
f 24/43/22 39/44/22 48/40/22
f 53/7/23 46/45/23 7/8/23
f 52/46/24 26/47/24 5/48/24
f 44/49/25 25/50/25 52/46/25
f 43/51/26 52/46/26 56/52/26
f 56/52/27 52/46/27 5/48/27
f 61/53/28 42/54/28 50/55/28
f 42/54/29 51/56/29 14/57/29
f 7/8/30 47/58/30 24/59/30
f 34/3/31 58/60/31 19/39/31
f 55/61/32 12/37/32 3/15/32
f 21/62/33 62/63/33 11/64/33
f 60/65/34 59/66/34 1/67/34
f 28/20/35 9/19/35 29/68/35
f 14/69/36 11/64/36 50/70/36
f 15/71/37 9/19/37 6/72/37
f 2/2/38 57/73/38 18/74/38
f 31/75/39 48/17/39 32/16/39
f 1/67/40 23/1/40 21/76/40
f 28/24/41 23/1/41 1/67/41
f 2/2/42 23/1/42 28/24/42
f 57/4/43 7/77/43 33/5/43
f 6/10/44 25/50/44 53/7/44
f 15/71/45 29/68/45 9/19/45
f 15/78/46 2/2/46 29/25/46
f 51/56/47 56/52/47 60/79/47
f 14/80/48 1/67/48 21/76/48
f 30/18/49 59/81/49 8/23/49
f 3/15/50 12/37/50 32/16/50
f 8/23/51 60/82/51 56/83/51
f 6/72/52 9/19/52 26/22/52
f 26/22/53 30/18/53 8/23/53
f 1/67/54 59/66/54 28/24/54
f 34/3/55 18/74/55 20/84/55
f 56/83/56 5/21/56 8/23/56
f 21/76/57 23/1/57 16/85/57
f 27/26/58 49/86/58 10/27/58
f 13/31/59 31/75/59 36/32/59
f 31/75/60 7/77/60 24/87/60
f 55/61/61 22/88/61 17/89/61
f 35/33/62 20/38/62 13/31/62
f 19/90/63 37/36/63 12/37/63
f 35/33/64 37/36/64 58/35/64
f 36/32/65 32/16/65 37/36/65
f 46/45/66 25/50/66 45/91/66
f 18/6/67 33/5/67 13/31/67
f 16/28/68 10/27/68 38/92/68
f 3/13/69 40/41/69 41/42/69
f 48/40/70 39/44/70 40/41/70
f 7/8/71 46/45/71 47/58/71
f 25/50/72 44/49/72 45/91/72
f 6/10/73 52/46/73 25/50/73
f 43/51/74 44/49/74 52/46/74
f 56/52/75 42/54/75 43/51/75
f 49/93/76 41/42/76 54/94/76
f 50/55/77 42/54/77 14/57/77
f 4/14/78 41/42/78 27/95/78
f 24/59/79 47/58/79 39/96/79
f 23/1/80 4/97/80 27/98/80
f 61/99/81 39/100/81 44/101/81
f 12/37/82 17/89/82 19/90/82
f 55/61/83 17/89/83 12/37/83
f 23/1/84 27/98/84 16/85/84
f 22/102/85 55/12/85 4/14/85
f 50/55/86 54/94/86 61/53/86
f 14/69/87 21/62/87 11/64/87
f 1/67/88 14/80/88 51/103/88
f 1/67/89 51/103/89 60/65/89
f 15/78/90 53/104/90 2/2/90
f 53/104/91 57/73/91 2/2/91
f 38/92/92 11/64/92 62/63/92
f 62/63/93 16/28/93 38/92/93
f 11/64/94 49/86/94 50/70/94
f 31/75/95 24/87/95 48/17/95
f 30/18/96 28/20/96 59/81/96
f 8/23/97 59/81/97 60/82/97
f 34/3/98 2/2/98 18/74/98
f 13/31/99 33/5/99 31/75/99
f 31/75/100 33/5/100 7/77/100
f 35/33/101 34/34/101 20/38/101
f 19/90/102 58/35/102 37/36/102
f 36/32/103 31/75/103 32/16/103
f 46/45/104 53/7/104 25/50/104
f 6/10/105 26/47/105 52/46/105
f 56/52/106 51/56/106 42/54/106
f 49/93/107 27/95/107 41/42/107
f 23/1/108 22/30/108 4/97/108
f 43/105/109 42/106/109 61/99/109
f 61/99/110 54/107/110 41/108/110
f 41/108/111 40/109/111 39/100/111
f 39/100/112 47/110/112 46/111/112
f 46/111/113 45/112/113 44/101/113
f 44/101/114 43/105/114 61/99/114
f 61/99/115 41/108/115 39/100/115
f 39/100/116 46/111/116 44/101/116
f 50/55/117 49/93/117 54/94/117
f 38/92/118 10/27/118 11/64/118
f 62/63/119 21/62/119 16/28/119
f 11/64/120 10/27/120 49/86/120
